<svg width="1em" height="1em" viewBox="0 0 600 600" fill="none" xmlns="http://www.w3.org/2000/svg">
<path d="M135.723 79.3751C202.219 129.296 273.743 230.515 300.003 284.835C326.265 230.519 397.785 129.295 464.283 79.3751C512.263 43.3541 590.003 15.4831 590.003 104.17C590.003 121.882 579.848 252.96 573.892 274.24C553.189 348.224 477.748 367.094 410.642 355.673C527.942 375.637 557.782 441.765 493.339 507.893C370.949 633.483 317.429 476.382 303.709 436.127C301.195 428.747 300.019 425.295 300.002 428.231C299.984 425.295 298.808 428.747 296.294 436.127C282.58 476.382 229.061 633.487 106.664 507.893C42.22 441.765 72.059 375.633 189.361 355.673C122.253 367.094 46.811 348.224 26.111 274.24C20.1548 252.958 10 121.88 10 104.17C10 15.4831 87.742 43.3541 135.72 79.3751H135.723Z" fill="white"/>
</svg>
