<svg width="1em" height="1em" viewBox="0 0 60 60" fill="none" xmlns="http://www.w3.org/2000/svg">
<path fill-rule="evenodd" clip-rule="evenodd" d="M60 30C60 46.5685 46.5685 60 30 60C13.4315 60 0 46.5685 0 30C0 13.4315 13.4315 0 30 0C46.5685 0 60 13.4315 60 30ZM45.5937 25.9227C47.9903 25.9227 49.957 27.854 49.957 30.286C49.957 32.074 48.8843 33.612 47.3823 34.292C47.4537 34.7207 47.4897 35.186 47.4897 35.6153C47.4897 42.3747 39.657 47.8113 30.0003 47.8113C20.3437 47.8113 12.511 42.3387 12.511 35.6153C12.511 35.15 12.5463 34.7207 12.6183 34.292C11.1157 33.612 10.043 32.11 10.043 30.322C10.043 27.9253 11.9743 25.9587 14.4063 25.9587C15.5863 25.9587 16.6597 26.4233 17.4463 27.1747C20.4863 24.9927 24.671 23.598 29.3203 23.4547L31.5383 13.0113C31.5737 12.7967 31.681 12.618 31.8597 12.5107C32.003 12.4033 32.2177 12.3673 32.4323 12.4033L39.6923 13.9413C40.193 12.904 41.2663 12.1887 42.4823 12.1887C44.199 12.1887 45.5937 13.5833 45.5937 15.3C45.5937 17.0173 44.199 18.412 42.4823 18.412C40.801 18.412 39.4423 17.0887 39.3703 15.4433L32.861 14.0487L30.8583 23.4193C35.4363 23.598 39.5497 24.9927 42.5537 27.1387C43.3403 26.3873 44.4137 25.9227 45.5937 25.9227ZM23.0977 30.286C21.3803 30.286 19.9857 31.6807 19.9857 33.3973C19.9857 35.114 21.3803 36.5447 23.0977 36.5093C24.8143 36.5093 26.209 35.114 26.209 33.3973C26.209 31.6807 24.8143 30.286 23.0977 30.286ZM30.0003 43.9487C31.1803 43.9487 35.2577 43.8053 37.4037 41.6593C37.6897 41.3373 37.6897 40.8367 37.4037 40.5147C37.0817 40.1933 36.581 40.1933 36.259 40.5147C34.9357 41.874 32.039 42.3387 30.0003 42.3387C27.9617 42.3387 25.1003 41.874 23.741 40.5147C23.419 40.1933 22.9183 40.1933 22.5963 40.5147C22.275 40.8367 22.275 41.3373 22.5963 41.6593C24.707 43.7693 28.7843 43.9487 30.0003 43.9487ZM33.7197 33.4333C33.7197 35.15 35.1143 36.5447 36.831 36.5447C38.5483 36.5447 39.943 35.114 39.943 33.4333C39.943 31.7167 38.5483 30.322 36.831 30.322C35.1143 30.322 33.7197 31.7167 33.7197 33.4333Z" fill="white"/>
</svg>
