<!DOCTYPE svg PUBLIC "-//W3C//DTD SVG 1.1//EN" "http://www.w3.org/Graphics/SVG/1.1/DTD/svg11.dtd">

<!-- Uploaded to: SVG Repo, www.svgrepo.com, Transformed by: SVG Repo Mixer Tools -->
<svg width="1em" height="1em" viewBox="0 0 48 48" xmlns="http://www.w3.org/2000/svg" fill="#ffffff">

<g id="SVGRepo_bgCarrier" stroke-width="0"/>

<g id="SVGRepo_tracerCarrier" stroke-linecap="round" stroke-linejoin="round"/>

<g id="SVGRepo_iconCarrier"> <title>tumblr</title> <g id="Layer_2" data-name="Layer 2"> <g id="invisible_box" data-name="invisible box"> <rect width="48" height="48" fill="none"/> <rect width="48" height="48" fill="none"/> </g> <g id="icons_Q2" data-name="icons Q2"> <g id="post-tumblr"> <path d="M40,4H8A4,4,0,0,0,4,8V40a4,4,0,0,0,4,4H40a4,4,0,0,0,4-4V8A4,4,0,0,0,40,4ZM32,22H26v7.8c0,1.4.2,2.2,2.2,2.2H32v6s-2,.2-4.2.2c-5.2,0-7.8-3.2-7.8-6.8V22H16V16.4c4.8-.4,5.2-4,5.6-6.4H26v6h6Z"/> </g> </g> </g> </g>

</svg>