<svg width="16" height="16" viewBox="0 0 16 16" fill="none" xmlns="http://www.w3.org/2000/svg">
<g clip-path="url(#clip0_254_113)">
<mask id="mask0_254_113" style="mask-type:luminance" maskUnits="userSpaceOnUse" x="0" y="2" width="16" height="12">
<path d="M14.8571 2.28577H1.14286C0.511675 2.28577 0 2.79744 0 3.42862V12.5715C0 13.2027 0.511675 13.7143 1.14286 13.7143H14.8571C15.4883 13.7143 16 13.2027 16 12.5715V3.42862C16 2.79744 15.4883 2.28577 14.8571 2.28577Z" fill="white"/>
</mask>
<g mask="url(#mask0_254_113)">
<path d="M15.9998 2.28577H-0.000244141V13.7143H15.9998V2.28577Z" fill="url(#paint0_linear_254_113)"/>
<path fill-rule="evenodd" clip-rule="evenodd" d="M-0.000244141 2.28577H15.9998V3.04767H-0.000244141V2.28577ZM-0.000244141 3.80958H15.9998V4.57148H-0.000244141V3.80958ZM-0.000244141 5.33338H15.9998V6.09529H-0.000244141V5.33338ZM-0.000244141 6.8572H15.9998V7.6191H-0.000244141V6.8572ZM-0.000244141 8.38102H15.9998V9.14291H-0.000244141V8.38102ZM-0.000244141 9.9048H15.9998V10.6667H-0.000244141V9.9048ZM-0.000244141 11.4286H15.9998V12.1905H-0.000244141V11.4286ZM-0.000244141 12.9525H15.9998V13.7143H-0.000244141V12.9525Z" fill="url(#paint1_linear_254_113)"/>
<path d="M6.85692 2.28577H-0.000244141V7.6191H6.85692V2.28577Z" fill="url(#paint2_linear_254_113)"/>
<path fill-rule="evenodd" clip-rule="evenodd" d="M1.14267 3.80963C0.932279 3.80963 0.761719 3.63907 0.761719 3.42868C0.761719 3.21829 0.932279 3.04773 1.14267 3.04773C1.35307 3.04773 1.52363 3.21829 1.52363 3.42868C1.52363 3.63907 1.35307 3.80963 1.14267 3.80963ZM2.66648 3.80963C2.45609 3.80963 2.28553 3.63907 2.28553 3.42868C2.28553 3.21829 2.45609 3.04773 2.66648 3.04773C2.87687 3.04773 3.04743 3.21829 3.04743 3.42868C3.04743 3.63907 2.87687 3.80963 2.66648 3.80963ZM4.19029 3.80963C3.9799 3.80963 3.80934 3.63907 3.80934 3.42868C3.80934 3.21829 3.9799 3.04773 4.19029 3.04773C4.40068 3.04773 4.57124 3.21829 4.57124 3.42868C4.57124 3.63907 4.40068 3.80963 4.19029 3.80963ZM5.7141 3.80963C5.50371 3.80963 5.33315 3.63907 5.33315 3.42868C5.33315 3.21829 5.50371 3.04773 5.7141 3.04773C5.92449 3.04773 6.09506 3.21829 6.09506 3.42868C6.09506 3.63907 5.92449 3.80963 5.7141 3.80963ZM1.90458 4.57154C1.69418 4.57154 1.52363 4.40098 1.52363 4.19059C1.52363 3.98019 1.69418 3.80963 1.90458 3.80963C2.11497 3.80963 2.28553 3.98019 2.28553 4.19059C2.28553 4.40098 2.11497 4.57154 1.90458 4.57154ZM3.42839 4.57154C3.21799 4.57154 3.04743 4.40098 3.04743 4.19059C3.04743 3.98019 3.21799 3.80963 3.42839 3.80963C3.63878 3.80963 3.80934 3.98019 3.80934 4.19059C3.80934 4.40098 3.63878 4.57154 3.42839 4.57154ZM4.95219 4.57154C4.7418 4.57154 4.57124 4.40098 4.57124 4.19059C4.57124 3.98019 4.7418 3.80963 4.95219 3.80963C5.16259 3.80963 5.33315 3.98019 5.33315 4.19059C5.33315 4.40098 5.16259 4.57154 4.95219 4.57154ZM5.7141 5.33344C5.50371 5.33344 5.33315 5.16288 5.33315 4.95249C5.33315 4.7421 5.50371 4.57154 5.7141 4.57154C5.92449 4.57154 6.09506 4.7421 6.09506 4.95249C6.09506 5.16288 5.92449 5.33344 5.7141 5.33344ZM4.19029 5.33344C3.9799 5.33344 3.80934 5.16288 3.80934 4.95249C3.80934 4.7421 3.9799 4.57154 4.19029 4.57154C4.40068 4.57154 4.57124 4.7421 4.57124 4.95249C4.57124 5.16288 4.40068 5.33344 4.19029 5.33344ZM2.66648 5.33344C2.45609 5.33344 2.28553 5.16288 2.28553 4.95249C2.28553 4.7421 2.45609 4.57154 2.66648 4.57154C2.87687 4.57154 3.04743 4.7421 3.04743 4.95249C3.04743 5.16288 2.87687 5.33344 2.66648 5.33344ZM1.14267 5.33344C0.932279 5.33344 0.761719 5.16288 0.761719 4.95249C0.761719 4.7421 0.932279 4.57154 1.14267 4.57154C1.35307 4.57154 1.52363 4.7421 1.52363 4.95249C1.52363 5.16288 1.35307 5.33344 1.14267 5.33344ZM1.90458 6.09535C1.69418 6.09535 1.52363 5.92479 1.52363 5.71439C1.52363 5.504 1.69418 5.33344 1.90458 5.33344C2.11497 5.33344 2.28553 5.504 2.28553 5.71439C2.28553 5.92479 2.11497 6.09535 1.90458 6.09535ZM3.42839 6.09535C3.21799 6.09535 3.04743 5.92479 3.04743 5.71439C3.04743 5.504 3.21799 5.33344 3.42839 5.33344C3.63878 5.33344 3.80934 5.504 3.80934 5.71439C3.80934 5.92479 3.63878 6.09535 3.42839 6.09535ZM4.95219 6.09535C4.7418 6.09535 4.57124 5.92479 4.57124 5.71439C4.57124 5.504 4.7418 5.33344 4.95219 5.33344C5.16259 5.33344 5.33315 5.504 5.33315 5.71439C5.33315 5.92479 5.16259 6.09535 4.95219 6.09535ZM5.7141 6.85725C5.50371 6.85725 5.33315 6.6867 5.33315 6.4763C5.33315 6.26591 5.50371 6.09535 5.7141 6.09535C5.92449 6.09535 6.09506 6.26591 6.09506 6.4763C6.09506 6.6867 5.92449 6.85725 5.7141 6.85725ZM4.19029 6.85725C3.9799 6.85725 3.80934 6.6867 3.80934 6.4763C3.80934 6.26591 3.9799 6.09535 4.19029 6.09535C4.40068 6.09535 4.57124 6.26591 4.57124 6.4763C4.57124 6.6867 4.40068 6.85725 4.19029 6.85725ZM2.66648 6.85725C2.45609 6.85725 2.28553 6.6867 2.28553 6.4763C2.28553 6.26591 2.45609 6.09535 2.66648 6.09535C2.87687 6.09535 3.04743 6.26591 3.04743 6.4763C3.04743 6.6867 2.87687 6.85725 2.66648 6.85725ZM1.14267 6.85725C0.932279 6.85725 0.761719 6.6867 0.761719 6.4763C0.761719 6.26591 0.932279 6.09535 1.14267 6.09535C1.35307 6.09535 1.52363 6.26591 1.52363 6.4763C1.52363 6.6867 1.35307 6.85725 1.14267 6.85725Z" fill="url(#paint3_linear_254_113)"/>
</g>
</g>
<defs>
<linearGradient id="paint0_linear_254_113" x1="7.99978" y1="2.28577" x2="7.99978" y2="13.7143" gradientUnits="userSpaceOnUse">
<stop stop-color="white"/>
<stop offset="1" stop-color="#F0F0F0"/>
</linearGradient>
<linearGradient id="paint1_linear_254_113" x1="7.99978" y1="2.28577" x2="7.99978" y2="13.7143" gradientUnits="userSpaceOnUse">
<stop stop-color="#D02F44"/>
<stop offset="1" stop-color="#B12537"/>
</linearGradient>
<linearGradient id="paint2_linear_254_113" x1="3.42833" y1="2.28577" x2="3.42833" y2="7.6191" gradientUnits="userSpaceOnUse">
<stop stop-color="#46467F"/>
<stop offset="1" stop-color="#3C3C6D"/>
</linearGradient>
<linearGradient id="paint3_linear_254_113" x1="3.42839" y1="3.04773" x2="3.42839" y2="6.85725" gradientUnits="userSpaceOnUse">
<stop stop-color="white"/>
<stop offset="1" stop-color="#F0F0F0"/>
</linearGradient>
<clipPath id="clip0_254_113">
<rect width="16" height="16" fill="white"/>
</clipPath>
</defs>
</svg>
