<svg width="16" height="16" viewBox="0 0 16 16" fill="none" xmlns="http://www.w3.org/2000/svg">
<path d="M1.77778 2C1.30628 2 0.854097 2.1873 0.520699 2.5207C0.187301 2.8541 0 3.30628 0 3.77778L0 11.7778C0 12.2493 0.187301 12.7015 0.520699 13.0349C0.854097 13.3683 1.30628 13.5556 1.77778 13.5556H4.88889V2H1.77778Z" fill="#006847"/>
<path d="M14.2222 2H11.1111V13.5556H14.2222C14.6937 13.5556 15.1459 13.3683 15.4793 13.0349C15.8127 12.7015 16 12.2493 16 11.7778V3.77778C16 3.30628 15.8127 2.8541 15.4793 2.5207C15.1459 2.1873 14.6937 2 14.2222 2Z" fill="#CE1126"/>
<path d="M4.88892 2H11.1111V13.5556H4.88892V2Z" fill="#EEEEEE"/>
<path d="M10.2221 7.77783C10.2221 8.3672 9.98801 8.93243 9.57127 9.34918C9.15452 9.76593 8.58929 10.0001 7.99992 10.0001C7.41055 10.0001 6.84532 9.76593 6.42857 9.34918C6.01182 8.93243 5.7777 8.3672 5.7777 7.77783H5.33325C5.33325 8.48508 5.6142 9.16335 6.1143 9.66345C6.6144 10.1635 7.29267 10.4445 7.99992 10.4445C8.70716 10.4445 9.38544 10.1635 9.88554 9.66345C10.3856 9.16335 10.6666 8.48508 10.6666 7.77783H10.2221Z" fill="#A6D388"/>
<path d="M6.01925 8.78615C6.00599 8.76014 5.98772 8.737 5.9655 8.71805C5.94329 8.6991 5.91756 8.68472 5.88978 8.67572C5.862 8.66672 5.83272 8.66329 5.80361 8.66561C5.77451 8.66794 5.74614 8.67597 5.72014 8.68926C5.69409 8.70249 5.67091 8.72073 5.65191 8.74293C5.63292 8.76513 5.61849 8.79085 5.60945 8.81864C5.60041 8.84642 5.59694 8.87571 5.59923 8.90484C5.60152 8.93396 5.60953 8.96235 5.62281 8.98838C5.66281 9.06719 5.70666 9.14363 5.75436 9.21771L5.75614 9.22082L5.7597 9.22615L5.76103 9.22926L5.76148 9.23015L5.76325 9.23238L5.76459 9.23504V9.23593L5.76592 9.23815L5.76636 9.23904L5.7677 9.24126L5.76814 9.24215L5.76948 9.24393L5.77036 9.24526L5.77125 9.2466L5.7717 9.24793L5.77303 9.25015L5.77348 9.2506L5.77436 9.25193L5.7757 9.2546L5.77614 9.25549L5.77748 9.25771L5.77792 9.2586L5.78103 9.26304V9.26349L5.78325 9.2666C5.80636 9.30038 5.83022 9.3343 5.85481 9.36749C5.87216 9.39082 5.89396 9.4105 5.91894 9.42539C5.94392 9.44029 5.97159 9.4501 6.00037 9.45427C6.02916 9.45844 6.05848 9.45689 6.08666 9.4497C6.11484 9.44251 6.14132 9.42982 6.16459 9.41237C6.21181 9.37722 6.24316 9.32476 6.25174 9.26651C6.26033 9.20826 6.24544 9.14899 6.21036 9.10171C6.13945 9.00106 6.0756 8.89562 6.01925 8.78615ZM5.79836 8.08304C5.78125 7.96042 5.77441 7.83658 5.77792 7.71282C5.77959 7.65395 5.75783 7.59682 5.71742 7.55399C5.677 7.51116 5.62123 7.48612 5.56236 7.48438L5.54636 7.48482C5.49027 7.48727 5.43719 7.51085 5.39778 7.55084C5.35836 7.59083 5.33555 7.64425 5.33392 7.70038C5.33288 7.74644 5.33273 7.79252 5.33348 7.8386V7.8786L5.33392 7.88082V7.89326L5.33436 7.8946L5.33392 7.89549V7.89682L5.33436 7.89771V7.9106L5.33481 7.91193V7.91682L5.33525 7.92526L5.3357 7.92926V7.93415C5.33985 8.00526 5.34666 8.07593 5.35614 8.14615C5.36441 8.20423 5.39531 8.25668 5.44211 8.29207C5.4889 8.32745 5.54778 8.3429 5.60592 8.33504C5.63514 8.33121 5.66331 8.32165 5.68882 8.30689C5.71433 8.29214 5.73666 8.27248 5.75455 8.24906C5.77243 8.22564 5.78551 8.19892 5.79303 8.17043C5.80055 8.14193 5.80236 8.11224 5.79836 8.08304ZM8.15125 9.99415L8.14859 9.9946L8.09348 9.99815C7.9882 10.0025 7.88275 9.99941 7.77792 9.98882C7.71928 9.98293 7.6607 10.0006 7.61506 10.0379C7.56943 10.0752 7.54048 10.1291 7.53459 10.1877C7.52869 10.2464 7.54634 10.3049 7.58364 10.3506C7.62093 10.3962 7.67483 10.4251 7.73348 10.431L7.78903 10.4359L7.79081 10.4364L7.7917 10.4359L7.79303 10.4364H7.79392L7.79659 10.4368H7.79925L7.80059 10.4373L7.8037 10.4368L7.80503 10.4373H7.80725L7.80992 10.4377L7.81214 10.4382H7.81792L7.82059 10.4386H7.82636C7.89392 10.4433 7.96192 10.4451 8.03037 10.4439H8.0477L8.05081 10.4435L8.05348 10.4439H8.06014L8.06236 10.4435H8.07081L8.07348 10.443L8.07614 10.4435L8.07659 10.443L8.07925 10.4435H8.0797L8.08192 10.443H8.08548L8.08814 10.4426H8.09081L8.09125 10.443L8.09392 10.4426H8.09703L8.09925 10.4422H8.10814L8.11036 10.4417H8.11214L8.11392 10.4413L8.1157 10.4417H8.11792L8.1197 10.4413H8.12192L8.17836 10.4382C8.23592 10.4335 8.28933 10.4063 8.32701 10.3626C8.3647 10.3188 8.38363 10.262 8.3797 10.2044C8.37856 10.1756 8.37173 10.1472 8.35962 10.1211C8.34751 10.0949 8.33035 10.0714 8.30913 10.0518C8.28791 10.0323 8.26303 10.0171 8.23594 10.0072C8.20885 9.99735 8.18007 9.9929 8.15125 9.99415ZM7.06725 9.79504C6.9551 9.7432 6.84747 9.6821 6.74548 9.61238C6.70593 9.5853 6.65869 9.57174 6.61081 9.57371C6.56427 9.57567 6.51952 9.59222 6.48289 9.621C6.44626 9.64978 6.4196 9.68934 6.40668 9.7341C6.39376 9.77885 6.39523 9.82653 6.41089 9.87041C6.42654 9.91428 6.45559 9.95213 6.49392 9.9786L6.49436 9.97904L6.49703 9.98037L6.4997 9.98304L6.50236 9.98482L6.50503 9.98704C6.62355 10.0676 6.74829 10.1382 6.87925 10.1986C6.93266 10.2233 6.99367 10.2258 7.04891 10.2055C7.10415 10.1853 7.1491 10.1439 7.17392 10.0906C7.19896 10.0373 7.20179 9.97616 7.18178 9.92073C7.16178 9.86531 7.12058 9.8201 7.06725 9.79504ZM9.30281 9.61815C9.26357 9.62005 9.22554 9.63232 9.19259 9.65371C9.0888 9.71998 8.97968 9.77751 8.86636 9.82571C8.81747 9.84512 8.77709 9.88131 8.75246 9.92779C8.72783 9.97427 8.72056 10.028 8.73195 10.0794C8.74335 10.1307 8.77266 10.1763 8.81464 10.208C8.85662 10.2397 8.90852 10.2555 8.96103 10.2524C8.98746 10.2514 9.0135 10.2456 9.03792 10.2355L9.09748 10.2088H9.09836L9.10103 10.207L9.10192 10.2066L9.1037 10.2057H9.10548L9.10725 10.2048L9.10814 10.2039L9.11081 10.2035L9.1117 10.2026L9.11303 10.2017L9.11525 10.2008L9.11659 10.2004L9.11881 10.1995L9.1197 10.199L9.12192 10.1982L9.12281 10.1977C9.1237 10.1968 9.12444 10.1964 9.12503 10.1964L9.12592 10.1959L9.12859 10.1946H9.12948L9.13214 10.1933L9.13481 10.1919L9.1357 10.1915L9.13792 10.1902L9.13881 10.1897L9.14148 10.1884L9.14192 10.1879L9.14503 10.1875L9.14814 10.1857L9.14903 10.1853L9.15081 10.1839H9.1517L9.15436 10.1822L9.15792 10.1813L9.16059 10.1795L9.16414 10.1777L9.16459 10.1773L9.17081 10.1746L9.17392 10.1733L9.18014 10.1697L9.1837 10.1684L9.18636 10.167L9.19303 10.1635L9.1957 10.1622L9.20592 10.1568L9.20903 10.1559L9.21525 10.1524L9.21836 10.1506H9.21881C9.21911 10.15 9.22014 10.1497 9.22192 10.1497C9.22281 10.1485 9.2237 10.1478 9.22459 10.1475L9.22814 10.1457L9.23081 10.1444V10.1439L9.23703 10.1413L9.24059 10.1395L9.24103 10.139L9.24325 10.1377L9.24681 10.1359L9.24948 10.1346H9.25036L9.25303 10.1328L9.25614 10.131L9.25659 10.1306L9.25925 10.1293L9.26192 10.1279L9.26281 10.1275L9.26459 10.1262L9.26592 10.1257L9.26814 10.1244L9.26903 10.1239L9.27125 10.1226L9.27214 10.1222L9.27481 10.1213C9.27451 10.121 9.27466 10.1208 9.27525 10.1208L9.27792 10.1195L9.27881 10.119L9.28059 10.1177L9.28148 10.1173L9.28414 10.1159L9.28503 10.1155C9.28503 10.1149 9.28562 10.1144 9.28681 10.1142L9.28814 10.1137L9.28992 10.1128L9.29125 10.1119L9.29303 10.111L9.29436 10.1102L9.2957 10.1093L9.29703 10.1079L9.29925 10.1075L9.30103 10.107L9.30192 10.1062L9.3037 10.1053L9.30548 10.1039L9.30636 10.1035L9.30814 10.1026L9.30992 10.1013L9.31125 10.1004C9.31185 10.1007 9.31259 10.1005 9.31348 10.0999L9.31436 10.099L9.31614 10.0982L9.31748 10.0973L9.31881 10.0964L9.32059 10.0955L9.32236 10.0942L9.32325 10.0937C9.32444 10.0937 9.32562 10.0933 9.32681 10.0924C9.32592 10.0924 9.32592 10.0921 9.32681 10.0924L9.32859 10.091L9.3317 10.0888L9.33259 10.0884L9.3357 10.087L9.34103 10.0839L9.34459 10.0817L9.35348 10.0768C9.38192 10.0599 9.41051 10.0426 9.43836 10.0248C9.48795 9.99308 9.52292 9.94296 9.53558 9.88546C9.54825 9.82796 9.53758 9.76779 9.50592 9.71815C9.48264 9.68634 9.45201 9.66063 9.41664 9.64322C9.38127 9.62581 9.34222 9.61721 9.30281 9.61815ZM10.4455 7.56571L10.4348 7.56615C10.3777 7.56855 10.3236 7.5929 10.284 7.63413C10.2443 7.67536 10.2221 7.73028 10.2219 7.78749C10.2219 7.9106 10.2108 8.03504 10.1899 8.15593C10.18 8.2141 10.1936 8.27382 10.2278 8.32196C10.2619 8.37009 10.3137 8.4027 10.3719 8.4126C10.4301 8.4225 10.4898 8.40889 10.5379 8.37475C10.5861 8.34062 10.6187 8.28877 10.6286 8.2306V8.22837L10.629 8.22749L10.6295 8.2266L10.629 8.22571L10.6295 8.22482V8.22393L10.6299 8.22304V8.22171L10.6304 8.22082V8.21682L10.6313 8.21504V8.21238C10.6409 8.15472 10.6486 8.09676 10.6544 8.0386L10.6539 8.03815L10.6544 8.03682L10.6548 8.0346V8.02971L10.6557 8.02837L10.6553 8.0266V8.02571L10.6557 8.02438V8.0226L10.6566 8.02215L10.6557 8.02082V8.01904C10.6566 8.01845 10.6569 8.01801 10.6566 8.01771V8.00926L10.6575 8.00793C10.6636 7.93476 10.6667 7.86092 10.6668 7.78749C10.6667 7.72878 10.6433 7.67251 10.6019 7.63095C10.5604 7.5894 10.5042 7.56594 10.4455 7.56571ZM10.2486 8.76393C10.223 8.74978 10.1949 8.74081 10.1659 8.73753C10.1369 8.73425 10.1075 8.73673 10.0794 8.74482C10.0513 8.75291 10.0251 8.76646 10.0023 8.78469C9.97948 8.80291 9.96047 8.82546 9.94636 8.85104C9.88644 8.9591 9.81761 9.06198 9.74059 9.1586C9.70429 9.20478 9.68776 9.26345 9.69459 9.32179C9.70143 9.38013 9.73109 9.43338 9.77708 9.46992C9.82307 9.50645 9.88166 9.52329 9.94003 9.51676C9.9984 9.51022 10.0518 9.48084 10.0886 9.43504C10.1404 9.36986 10.1893 9.30245 10.2353 9.23282C10.2364 9.22986 10.2381 9.22689 10.2401 9.22393L10.2406 9.22349L10.2424 9.22082L10.2441 9.21726C10.2453 9.21638 10.2459 9.21549 10.2459 9.2146L10.2464 9.21504L10.2481 9.21238V9.21193L10.2495 9.20882L10.2504 9.20837L10.2521 9.20571L10.2535 9.20304L10.2539 9.2026L10.2557 9.19993L10.2561 9.19904L10.257 9.19682L10.2584 9.19593L10.2593 9.19371H10.2601L10.261 9.19104L10.2615 9.19015L10.2633 9.18837L10.2637 9.18749C10.2637 9.1866 10.2641 9.18586 10.265 9.18526L10.2655 9.18393L10.2673 9.1826C10.2673 9.182 10.2676 9.18156 10.2681 9.18126V9.17949L10.2695 9.1786L10.2708 9.17637L10.2713 9.17549L10.2726 9.17282L10.2735 9.17193L10.2744 9.17015L10.2753 9.16882C10.2753 9.16823 10.2755 9.16778 10.2761 9.16749C10.2761 9.16689 10.2764 9.16645 10.277 9.16615L10.2784 9.16393L10.2788 9.1626L10.2797 9.16126L10.2806 9.15993C10.2815 9.15934 10.2818 9.15889 10.2815 9.1586C10.2824 9.1583 10.2827 9.15771 10.2824 9.15682L10.2833 9.15549L10.2846 9.15371L10.2859 9.15193V9.1506L10.2868 9.14926L10.2881 9.14749L10.2895 9.14615V9.14482L10.2913 9.1426V9.14126C10.2921 9.14097 10.2926 9.14037 10.2926 9.13949L10.2935 9.1386L10.2944 9.13726L10.2957 9.13504L10.2966 9.13371V9.13282L10.2984 9.1306C10.2984 9.13 10.2987 9.12956 10.2993 9.12926L10.2997 9.12793L10.301 9.12615L10.3019 9.12438L10.3028 9.12304L10.3037 9.12126C10.3037 9.12067 10.304 9.12038 10.3046 9.12038L10.3055 9.11815L10.3064 9.11726L10.3073 9.1146L10.3081 9.11415L10.309 9.11238L10.3099 9.11149L10.3108 9.10926L10.3117 9.10837L10.3126 9.10571C10.3132 9.10512 10.3132 9.10482 10.3126 9.10482L10.3144 9.1026L10.3148 9.10171L10.3166 9.09949V9.09904L10.3179 9.09637L10.3188 9.09549L10.3197 9.09282L10.3219 9.09015L10.3233 9.08749V9.08704L10.325 9.08393L10.3259 9.08349L10.337 9.0626C10.3644 9.01116 10.3704 8.95104 10.3539 8.89517C10.3374 8.83931 10.2995 8.79218 10.2486 8.76393Z" fill="#5C913B"/>
<path d="M8.00008 9.55564C8.73646 9.55564 9.33341 9.35665 9.33341 9.11119C9.33341 8.86573 8.73646 8.66675 8.00008 8.66675C7.2637 8.66675 6.66675 8.86573 6.66675 9.11119C6.66675 9.35665 7.2637 9.55564 8.00008 9.55564Z" fill="#55ACEE"/>
<path d="M8.22233 9.55564C8.59052 9.55564 8.889 9.35665 8.889 9.11119C8.889 8.86573 8.59052 8.66675 8.22233 8.66675C7.85414 8.66675 7.55566 8.86573 7.55566 9.11119C7.55566 9.35665 7.85414 9.55564 8.22233 9.55564Z" fill="#FFCC4D"/>
<path d="M8.49639 9.23293C8.45797 9.23261 8.42029 9.22239 8.38697 9.20327C8.35365 9.18414 8.32582 9.15676 8.30616 9.12375C8.28651 9.09074 8.27569 9.05322 8.27476 9.01481C8.27383 8.97641 8.28281 8.93841 8.30083 8.90448C8.37194 8.77352 8.44631 8.65574 8.52394 8.55115C8.46028 8.55385 8.39656 8.55518 8.33283 8.55515C8.21017 8.55515 8.09817 8.45515 8.09817 8.33248C8.09817 8.20981 8.18483 8.11026 8.30794 8.11026L8.34439 8.1107C8.47594 8.1107 8.61105 8.1027 8.73194 8.09159C8.76562 8.08819 8.79962 8.09269 8.83125 8.10473C8.86288 8.11676 8.89127 8.136 8.91417 8.16093C8.92009 8.15589 8.92646 8.1513 8.93328 8.14715C8.97772 8.11781 9.0192 8.09396 9.05772 8.07559C9.08529 8.05454 9.11741 8.04023 9.1515 8.03381L9.1675 8.0307C9.25105 8.00359 9.30972 8.00004 9.33328 8.00004C9.36808 7.99991 9.40242 8.00799 9.43352 8.02363C9.46461 8.03926 9.49158 8.06201 9.51223 8.09003C9.53289 8.11804 9.54664 8.15053 9.55238 8.18486C9.55812 8.21919 9.55569 8.25438 9.54528 8.28759C9.50883 8.40581 9.4275 8.43248 9.28483 8.46093C9.24754 8.47585 9.21206 8.49493 9.17905 8.51781C9.13878 8.54375 9.09132 8.55626 9.04349 8.55355C8.99566 8.55083 8.94992 8.53303 8.91283 8.5027C8.94305 8.54181 8.95937 8.58988 8.95921 8.6393C8.95905 8.68872 8.94242 8.73668 8.91194 8.77559C8.83609 8.87248 8.76261 8.98626 8.6915 9.11693C8.6724 9.15201 8.64421 9.1813 8.60987 9.20172C8.57554 9.22213 8.53633 9.23291 8.49639 9.23293ZM7.86528 8.5267L7.83594 8.52493C7.67721 8.50431 7.52029 8.47147 7.36661 8.4267C7.33862 8.4184 7.31253 8.40466 7.28985 8.38627C7.26717 8.36788 7.24834 8.34519 7.23443 8.31952C7.22052 8.29385 7.21181 8.26568 7.20879 8.23664C7.20577 8.2076 7.2085 8.17824 7.21683 8.15026L7.2195 8.14137L7.21417 8.15159C7.19991 8.17708 7.18077 8.19951 7.15784 8.2176C7.1349 8.23568 7.10863 8.24907 7.08052 8.257C7.05241 8.26492 7.02301 8.26723 6.99401 8.26379C6.96501 8.26034 6.93697 8.25121 6.9115 8.23693C6.76343 8.1557 6.6277 8.05378 6.50839 7.93426C6.46791 7.89235 6.44551 7.83621 6.44602 7.77795C6.44652 7.71968 6.46989 7.66395 6.51109 7.62274C6.5523 7.58154 6.60803 7.55817 6.6663 7.55766C6.72456 7.55716 6.7807 7.57956 6.82261 7.62004C6.91061 7.70804 7.01254 7.78433 7.12839 7.84893C7.17367 7.8743 7.20864 7.91473 7.22723 7.9632C7.24582 8.01166 7.24686 8.06511 7.23017 8.11426C7.25351 8.06748 7.2926 8.03042 7.34056 8.00961C7.38852 7.9888 7.44228 7.98557 7.49239 8.00048C7.61505 8.03693 7.74972 8.06492 7.89239 8.08404C7.94836 8.09116 7.99953 8.1193 8.03552 8.16276C8.0715 8.20622 8.08961 8.26175 8.08616 8.31807C8.08271 8.37439 8.05796 8.42729 8.01694 8.46603C7.97592 8.50478 7.9217 8.52647 7.86528 8.5267ZM6.7755 7.48715C6.58617 7.48715 6.34128 7.41381 6.19283 7.2387C5.96528 6.97026 5.8315 6.62581 5.85194 6.36181C5.85728 6.29115 5.78839 6.23426 5.72083 6.21648C5.68217 6.20626 5.61417 6.20004 5.58217 6.26893C5.57604 6.28217 5.56736 6.29409 5.55663 6.30398C5.54589 6.31388 5.53332 6.32156 5.51962 6.3266C5.50592 6.33163 5.49136 6.33392 5.47677 6.33333C5.46218 6.33273 5.44786 6.32928 5.43461 6.32315C5.42136 6.31702 5.40945 6.30834 5.39955 6.29761C5.38966 6.28688 5.38197 6.2743 5.37694 6.2606C5.3719 6.2469 5.36962 6.23234 5.37021 6.21775C5.3708 6.20317 5.37426 6.18884 5.38039 6.17559C5.44972 6.02493 5.60528 5.95781 5.77683 6.00137C5.93594 6.0427 6.08839 6.18581 6.07328 6.37915C6.05728 6.58448 6.17372 6.87204 6.36217 7.0947C6.46128 7.21204 6.63372 7.25959 6.75105 7.26404C6.84661 7.26893 6.89505 7.24715 6.90528 7.23781C6.88039 7.1787 6.55105 7.00537 6.41061 6.93159C6.29105 6.86893 6.2555 6.7827 6.24661 6.72181C6.21683 6.51959 6.42439 6.3147 6.62528 6.11737C6.69594 6.04759 6.76305 5.98181 6.7995 5.93337C6.84083 5.8787 6.83417 5.84226 6.82617 5.81959C6.7955 5.73648 6.66261 5.65426 6.50261 5.6187C6.35417 5.58552 6.2552 5.51456 6.20572 5.40581C6.14128 5.26315 6.1755 5.07648 6.30972 4.8347C6.31681 4.82195 6.32635 4.81072 6.33778 4.80165C6.34921 4.79258 6.36232 4.78585 6.37635 4.78185C6.39038 4.77785 6.40506 4.77665 6.41956 4.77832C6.43405 4.77999 6.44808 4.7845 6.46083 4.79159C6.47358 4.79868 6.48482 4.80822 6.49388 4.81965C6.50295 4.83108 6.50968 4.84419 6.51368 4.85822C6.51769 4.87225 6.51889 4.88693 6.51722 4.90143C6.51554 4.91593 6.51103 4.92995 6.50394 4.9427C6.37728 5.17026 6.38972 5.27337 6.40839 5.3147C6.42705 5.35559 6.47446 5.38448 6.55061 5.40137C6.73861 5.44315 6.96483 5.5547 7.03417 5.74226C7.07372 5.84937 7.05372 5.96493 6.97728 6.0667C6.93105 6.12848 6.85817 6.20004 6.78128 6.27604C6.66661 6.38893 6.45283 6.59915 6.46661 6.68981C6.46928 6.70848 6.49372 6.72493 6.51417 6.73515C6.84794 6.91026 7.06972 7.03693 7.11505 7.19204C7.12288 7.21851 7.12526 7.2463 7.12205 7.27372C7.11884 7.30115 7.11011 7.32764 7.09639 7.35159C7.05328 7.4267 6.9635 7.47293 6.83639 7.48448C6.81713 7.48626 6.79683 7.48715 6.7755 7.48715Z" fill="#5C913B"/>
<path d="M8.66656 8.22214C8.78929 8.22214 8.88878 8.02316 8.88878 7.7777C8.88878 7.53224 8.78929 7.33325 8.66656 7.33325C8.54383 7.33325 8.44434 7.53224 8.44434 7.7777C8.44434 8.02316 8.54383 8.22214 8.66656 8.22214Z" fill="#FFCC4D"/>
<path d="M7.68543 7.41693C7.68543 7.54493 7.5321 7.64848 7.34276 7.64848C7.15387 7.64848 7.0001 7.54493 7.0001 7.41693C7.0001 7.28893 7.15343 7.18537 7.34276 7.18537C7.53165 7.18537 7.68543 7.28893 7.68543 7.41693ZM7.15787 5.36048C7.1801 5.45471 7.05698 5.56493 6.88276 5.60626C6.70854 5.6476 6.54943 5.60448 6.52676 5.51026C6.50454 5.4156 6.62765 5.30537 6.80143 5.26404C6.9761 5.22315 7.13565 5.26582 7.15787 5.36048Z" fill="#FFCC4D"/>
<path d="M10.0146 7.75778C10.0546 7.78889 10.1226 7.43378 10.1124 7.32311C10.1124 7.31555 10.0995 7.08044 10.1493 6.91244C10.1799 6.85555 10.1817 6.43111 10.1346 6.31956C10.1719 6.31644 10.2168 6.30444 10.2221 6.25911C10.0497 6.32267 10.0093 5.896 9.84348 5.65067C9.68259 5.40489 9.48303 5.26178 9.27459 5.11244C9.2921 5.06889 9.3164 5.02839 9.34659 4.99244C9.09104 5.12044 8.69281 4.65689 8.10437 4.69156C7.97237 4.70444 7.9097 4.71244 7.87592 4.79333C7.76615 4.80222 7.65459 4.82711 7.65459 4.97156C7.65459 5.00622 7.68615 5.06933 7.75637 5.06978C7.85237 5.09778 7.93059 5.076 7.99592 5.21022L8.01326 5.34889C8.01326 5.34889 7.92748 5.23911 7.88037 5.22178L7.90926 5.16267C7.86481 5.13689 7.78615 5.15778 7.78615 5.15778C7.78615 5.15778 7.61504 5.07778 7.4777 5.09911L7.45103 4.988C7.42703 5.05644 7.37326 5.05289 7.3657 5.11733C7.35059 5.07111 7.33059 5.01378 7.31637 4.96756C7.26792 5.03333 7.28215 5.10444 7.26481 5.17289C7.24615 5.18889 7.20792 5.18933 7.19815 5.14533C7.19326 5.09111 7.18659 5.08622 7.18659 5.02178C7.15192 5.08267 7.11015 5.11244 7.09637 5.21689L7.05948 5.10133C7.06081 5.23778 6.94348 5.31911 6.83237 5.41556C6.80081 5.47333 6.83726 5.47378 6.83992 5.50356L6.89859 5.53289L7.00392 5.52533C7.02126 5.54711 7.00704 5.54889 7.05281 5.56267C7.17548 5.59689 7.32837 5.44978 7.44837 5.68133C7.39326 5.72756 7.3377 5.83556 7.35548 5.856C7.3777 5.856 7.31104 5.88711 7.40081 5.85867C7.30748 5.94933 7.24437 6.06889 7.24437 6.076C7.2337 6.10178 7.2817 6.07244 7.27192 6.11911L7.29415 6.11644C7.08126 6.34667 7.28703 6.59422 7.26437 6.72711C7.29992 6.78444 7.30437 6.72578 7.34881 6.72C7.38615 6.88356 7.4937 6.98267 7.55948 7.112L7.42081 7.11333C7.42392 7.17467 7.47948 7.23289 7.52348 7.28667L7.43059 7.316C7.37067 7.34548 7.31743 7.38693 7.27415 7.43778C7.24348 7.51244 7.42215 7.53022 7.50837 7.54355L7.50526 7.63378C7.63992 7.64667 7.79548 7.60667 7.79548 7.59911L7.82926 7.57289L7.90526 7.61467C7.93059 7.61467 7.97015 7.51333 7.95192 7.43555C8.00081 7.49378 8.04703 7.58756 8.09592 7.64622L8.1417 7.64C8.18348 7.70622 8.24081 7.772 8.28259 7.83822L8.32926 7.856C8.35637 7.84667 8.37948 7.84356 8.39415 7.79022L8.41548 7.82755L8.48926 7.77689L8.54081 7.76667L8.57948 7.82978C8.60215 7.82133 8.62437 7.772 8.6257 7.71955C8.64881 7.76533 8.65503 7.76178 8.67192 7.77378L8.70615 7.70178L8.89059 7.87422L9.03015 7.88222C9.07992 7.916 9.21637 7.93733 9.23948 7.88267C9.35148 7.93067 9.48348 7.87644 9.47681 7.82311C9.57992 7.864 9.73859 7.83644 9.73859 7.82978C9.7577 7.82756 9.80659 7.77956 9.76037 7.74356C9.41948 7.50622 8.91415 7.11333 8.71903 7.01867C8.71903 6.94844 8.66615 6.69556 8.60926 6.62622L8.65548 6.54889C8.78837 6.67289 8.83637 6.66089 8.90703 6.68044C8.98259 6.74044 9.00881 6.83156 9.08437 6.91467L9.15192 6.92711C9.09665 6.7826 9.01292 6.65066 8.9057 6.53911C8.97859 6.57556 9.09948 6.67289 9.18037 6.74356C9.2337 6.83289 9.24926 6.904 9.29815 7.016C9.3337 7.03867 9.37015 7.12178 9.36526 7.05289C9.35681 6.92355 9.2657 6.71867 9.2657 6.704C9.41059 6.81867 9.40881 6.99733 9.45281 7.10622C9.4897 7.16133 9.50837 7.23511 9.52437 7.21778L9.4817 6.88178L9.45681 6.75867C9.56392 6.82044 9.60215 7.056 9.65237 7.33867C9.65237 7.38355 9.67059 7.43289 9.66792 7.46178C9.69103 7.49022 9.71726 7.56889 9.71681 7.52222C9.71681 7.52222 9.71681 7.06267 9.68526 6.95733C9.67726 6.90089 9.69859 6.80933 9.69859 6.80933C9.7377 7 9.77948 7.20667 9.81904 7.39689V7.53689L9.8777 7.596C9.88881 7.48044 9.90215 7.36578 9.9137 7.25111L9.8697 6.84V6.72267C9.86881 6.68133 9.90748 6.68889 9.93192 6.736C9.9377 6.83689 9.9377 6.91555 9.9417 7.016C9.95903 7.13067 9.97104 7.21467 9.97948 7.36089C9.98437 7.47911 9.9897 7.76267 10.0146 7.75778Z" fill="#C1694F"/>
</svg>
