<svg width="16" height="16" viewBox="0 0 16 16" fill="none" xmlns="http://www.w3.org/2000/svg">
<g clip-path="url(#clip0_254_97)">
<path d="M14.2222 2.22217H1.77778C1.68667 2.22217 1.59689 2.22883 1.50934 2.24217L1.50756 3.02172L0.294224 3.01995C0.101845 3.31054 -0.00050313 3.65144 1.85974e-06 3.99995V11.9999C1.85974e-06 12.4714 0.187303 12.9236 0.520701 13.257C0.854099 13.5904 1.30628 13.7777 1.77778 13.7777H14.2222C14.6937 13.7777 15.1459 13.5904 15.4793 13.257C15.8127 12.9236 16 12.4714 16 11.9999V3.99995C16 3.52845 15.8127 3.07627 15.4793 2.74287C15.1459 2.40947 14.6937 2.22217 14.2222 2.22217Z" fill="#00247D"/>
<path d="M3.99999 11.5658L3.45687 12.0675L3.51065 11.3298L2.77954 11.2182L3.38976 10.8004L3.02132 10.1591L3.72843 10.376L3.99999 9.68754L4.27199 10.376L4.9791 10.1591L4.61021 10.8004L5.22087 11.2182L4.48976 11.3298L4.54354 12.0675L3.99999 11.5658ZM12.4222 4.24976L12.0671 4.57776L12.1022 4.0951L11.6235 4.02221L12.0231 3.74887L11.7822 3.32932L12.2444 3.4711L12.4222 3.02087L12.6004 3.4711L13.0631 3.32932L12.8218 3.74887L13.2209 4.02221L12.7427 4.0951L12.7778 4.57776L12.4222 4.24976ZM10.6444 6.91643L10.2893 7.24487L10.3244 6.76221L9.84576 6.68932L10.2453 6.41554L10.0044 5.99599L10.4667 6.13776L10.6444 5.68754L10.8227 6.13776L11.2853 5.99599L11.044 6.41554L11.4431 6.68932L10.9649 6.76221L11 7.24487L10.6444 6.91643ZM14.6444 6.02754L14.2893 6.35599L14.3244 5.87332L13.8458 5.80043L14.2453 5.52665L14.0044 5.1071L14.4667 5.24887L14.6444 4.79865L14.8227 5.24887L15.2853 5.1071L15.044 5.52665L15.4431 5.80043L14.9649 5.87332L15 6.35599L14.6444 6.02754ZM12.4222 12.2498L12.0671 12.5782L12.1022 12.0955L11.6235 12.0227L12.0231 11.7489L11.7822 11.3293L12.2444 11.4711L12.4222 11.0209L12.6004 11.4711L13.0631 11.3293L12.8218 11.7489L13.2209 12.0227L12.7427 12.0955L12.7778 12.5782L12.4222 12.2498ZM13.7778 7.1111L13.9084 7.37599L14.2004 7.41821L13.9893 7.62398L14.0391 7.9151L13.7778 7.77776L13.5164 7.9151L13.5662 7.62398L13.3551 7.41821L13.6471 7.37599L13.7778 7.1111Z" fill="white"/>
<path d="M8.44445 7.99995V2.22217H1.77778C1.63556 2.22217 1.50933 2.24217 1.50933 2.24217L1.50756 3.02172L0.294223 3.01995C0.294223 3.01995 0.275557 3.04617 0.237779 3.11106C0.0816515 3.38125 -0.000371753 3.68788 1.26663e-06 3.99995V7.99995H8.44445Z" fill="#00247D"/>
<path d="M8.44445 2.22217H7.40845L5.33333 3.67506V2.22217H3.11111V3.36395L1.50933 2.24217C1.24216 2.28208 0.987828 2.38323 0.766222 2.53772L2.856 3.99995H2.08444L0.429778 2.84039C0.380981 2.89743 0.335712 2.95739 0.294222 3.01995L1.69467 3.99995H0V6.22217H1.72667L0 7.4515V7.99995H1.48089L3.11111 6.85861V7.99995H5.33333V6.54706L7.408 7.99995H8.44445V7.09817L7.19333 6.22217H8.44445V3.99995H7.19378L8.44445 3.12395V2.22217Z" fill="#EEEEEE"/>
<path d="M4.88889 2.22217H3.55556V4.44439H0V5.77772H3.55556V7.99995H4.88889V5.77772H8.44445V4.44439H4.88889V2.22217Z" fill="#CF1B2B"/>
<path d="M8.44439 2.22217H7.79506L5.33328 3.94617V3.99995H6.0315L8.44439 2.31017V2.22217ZM0.766172 2.53772C0.641743 2.62406 0.528703 2.72576 0.429727 2.84039L2.08439 3.99995H2.85551L0.766172 2.53772ZM2.86084 6.22217L0.326172 7.99995H1.09373L3.11106 6.5875V6.22217H2.86084ZM8.44439 7.91195V7.36972L6.80573 6.22217H6.03106L8.44439 7.91195Z" fill="#CF1B2B"/>
</g>
<defs>
<clipPath id="clip0_254_97">
<rect width="16" height="16" fill="white"/>
</clipPath>
</defs>
</svg>
